<svg width="18" height="16" viewBox="0 0 18 16" fill="none" xmlns="http://www.w3.org/2000/svg">
<path d="M8.99999 3.48411C5.37633 -0.894536 1.55034 2.21668 1.5 5.5705C1.5 10.5634 7.56608 14.6616 8.99999 14.6616C10.4339 14.6616 16.5 10.5634 16.5 5.5705C16.4497 2.21668 12.6236 -0.894536 8.99999 3.48411Z" fill="white"/>
<path d="M1.5 5.5705L0.75 5.55925V5.5705H1.5ZM8.99999 3.48411L8.42219 3.96228C8.56467 4.13445 8.77651 4.23411 8.99999 4.23411C9.22347 4.23411 9.43531 4.13445 9.57779 3.96228L8.99999 3.48411ZM16.5 5.5705H17.2501L17.2499 5.55925L16.5 5.5705ZM2.24992 5.58176C2.27132 4.15557 3.1029 2.82322 4.22282 2.30928C4.76666 2.05971 5.39521 1.99217 6.08269 2.20708C6.77939 2.42487 7.58326 2.94857 8.42219 3.96228L9.57779 3.00594C8.60489 1.83033 7.57164 1.10094 6.53024 0.775398C5.47962 0.446973 4.46909 0.545854 3.59719 0.945982C1.88561 1.73144 0.779018 3.63162 0.750084 5.55925L2.24992 5.58176ZM8.99999 13.9116C8.96622 13.9116 8.82196 13.8909 8.54571 13.7798C8.28807 13.6763 7.96942 13.5163 7.60907 13.3001C6.88892 12.868 6.04207 12.2352 5.23509 11.4506C3.59902 9.86002 2.25 7.77002 2.25 5.5705H0.75C0.75 8.3639 2.43402 10.8194 4.18947 12.5261C5.07824 13.3902 6.01678 14.094 6.8373 14.5863C7.24729 14.8323 7.6378 15.0316 7.98636 15.1716C8.3163 15.3042 8.67528 15.4116 8.99999 15.4116V13.9116ZM17.2499 5.55925C17.221 3.63162 16.1144 1.73144 14.4028 0.945982C13.5309 0.545854 12.5204 0.446974 11.4697 0.775398C10.4283 1.10094 9.39509 1.83033 8.42219 3.00594L9.57779 3.96228C10.4167 2.94857 11.2206 2.42487 11.9173 2.20708C12.6048 1.99217 13.2333 2.05971 13.7772 2.30928C14.8971 2.82322 15.7287 4.15557 15.7501 5.58176L17.2499 5.55925ZM8.99999 15.4116C9.3247 15.4116 9.68367 15.3042 10.0136 15.1716C10.3622 15.0316 10.7527 14.8323 11.1627 14.5863C11.9832 14.094 12.9217 13.3902 13.8105 12.5261C15.566 10.8194 17.25 8.3639 17.25 5.5705H15.75C15.75 7.77001 14.401 9.86002 12.7649 11.4506C11.9579 12.2352 11.1111 12.868 10.3909 13.3001C10.0306 13.5163 9.71191 13.6763 9.45427 13.7798C9.17801 13.8909 9.03376 13.9116 8.99999 13.9116V15.4116Z" fill="#353949"/>
</svg>
